<svg width="98" height="82" viewBox="0 0 112 110" fill="none" xmlns="http://www.w3.org/2000/svg">
<path d="M112 75.6964C111.998 67.7331 109.188 60.0167 104.048 53.862C98.9079 47.7072 91.7561 43.4949 83.811 41.9427C83.3585 46.8731 82.0714 51.6945 80.003 56.208C86.135 58.245 90.076 62.8693 91 69.4343H94.5V72.3658H91.238V75.3523C91.238 75.6689 91.238 75.9923 91.21 76.2813H94.5V79.2197H90.923C89.348 87.8078 82.509 92.9001 72.233 92.9001C70.021 92.9001 68.103 92.6868 66.5 92.3152V87.2711C68.3722 87.6806 70.2873 87.87 72.205 87.8354C78.638 87.8354 82.971 84.6286 84.343 79.2197H70.924V76.2813H84.784C84.805 75.9648 84.805 75.6138 84.805 75.2698V72.3658H70.924V69.4274H84.49C83.664 65.2847 81.214 62.3394 77.455 60.97C73.7692 66.971 68.7003 72.0363 62.6572 75.7573C56.614 79.4784 49.7658 81.7511 42.665 82.3921C44.3818 90.7496 49.1926 98.1833 56.1657 103.253C63.1388 108.323 71.7778 110.669 80.4093 109.835C89.0407 109.001 97.0504 105.048 102.887 98.7414C108.723 92.4345 111.97 84.2226 112 75.6964H112ZM0 37.8482C0 27.8102 4.05624 18.1834 11.2764 11.0855C18.4965 3.98756 28.2892 0 38.5 0C48.7108 0 58.5035 3.98756 65.7236 11.0855C72.9438 18.1834 77 27.8102 77 37.8482C77 47.8862 72.9438 57.513 65.7236 64.6109C58.5035 71.7088 48.7108 75.6964 38.5 75.6964C28.2892 75.6964 18.4965 71.7088 11.2764 64.6109C4.05624 57.513 0 47.8862 0 37.8482ZM54.25 28.7509C53.767 23.0048 49.028 18.5319 40.502 18.002V13.763H36.722V18.0295C27.909 18.6213 22.75 23.1218 22.75 29.6592C22.75 35.6117 26.691 38.674 33.74 40.2567L36.722 40.9449V52.4783C32.942 52.0654 30.534 50.0904 29.96 47.3515H23.324C23.814 52.8843 28.777 57.2127 36.722 57.6875V61.9334H40.502V57.605C48.034 56.8962 53.158 52.5677 53.158 46.4432C53.158 41.0275 49.35 37.5798 43.008 36.1691L40.502 35.5842V23.3351C44.38 23.8857 46.942 25.9226 47.523 28.7509H54.25ZM40.53 41.7913C44.254 42.6171 46.27 44.2962 46.27 46.8286C46.27 49.65 44.093 51.7763 40.502 52.3957V41.7982H40.537L40.53 41.7913ZM36.176 34.607C31.661 33.6092 29.575 31.9921 29.575 29.1294C29.575 25.8675 32.165 23.6242 36.715 23.2113V34.7309L36.176 34.607Z" fill="#FF6600"/>
</svg>
